<svg xmlns="http://www.w3.org/2000/svg" width="24px" height="24px" fill="none" viewBox="0 0 24 24"><rect width="24" height="24" fill="#000" rx="4"></rect><path fill="#fff" fill-rule="evenodd" d="M11 5v-.777c0-.075.078-.14.19-.158a5.083 5.083 0 011.62 0c.112.018.19.083.19.158V5h-2zM6.504 15L6.5 16c.45 0 .697-.101.97-.212.334-.136.706-.288 1.531-.288.826 0 1.348.303 1.818.576.383.222.732.424 1.181.424.45 0 .798-.202 1.183-.424.47-.273.994-.576 1.819-.576s1.196.152 1.53.288c.272.111.519.212.968.212v-1c.002 0 .882-1.993 1.295-2.927a.499.499 0 00-.273-.665L17.5 11V7.5a2 2 0 00-2-2H8.502a2 2 0 00-2 1.999L6.5 11l-1.019.408a.5.5 0 00-.271.666L6.504 15zm1.43 4.368c-.539.308-1.21.632-2.434.632H4v-2H5.5c.776 0 1.105-.176 1.441-.368l.095-.055C7.459 17.332 8.032 17 9 17c1.05 0 1.63.385 2.055.668l.004.003c.323.215.494.329.941.329.456 0 .647-.12.98-.338l.02-.013c.414-.27.994-.649 2-.649.928 0 1.503.329 1.916.565l.11.063c.346.194.694.372 1.474.372H20v2H18.5c-1.22 0-1.906-.322-2.452-.628l-.1-.056c-.396-.223-.56-.316-.948-.316-.41 0-.577.109-.928.338-.435.283-1.028.662-2.072.662-1.05 0-1.63-.385-2.055-.668l-.004-.003C9.618 19.114 9.447 19 9 19c-.425 0-.598.1-.98.319l-.086.05zM16 7H8v3.5L12 9l4 1.5V7z" clip-rule="evenodd"></path></svg>